<mxfile host="app.diagrams.net" modified="2024-06-27T05:09:22.126Z" agent="Mozilla/5.0 (Windows NT 10.0; Win64; x64) AppleWebKit/537.36 (KHTML, like Gecko) Chrome/126.0.0.0 Safari/537.36" version="24.6.3" etag="NHvE7tSluVrxOBJnChOM" type="github">
  <diagram name="Page-1" id="nEcZWw2410vfpri5QWrt">
    <mxGraphModel>
      <root>
        <mxCell id="0" />
        <mxCell id="1" parent="0" />
      </root>
    </mxGraphModel>
  </diagram>
</mxfile>
